<?xml version="1.0" encoding="UTF-8"?><svg id="_레이어_2" xmlns="http://www.w3.org/2000/svg" viewBox="0 0 96 96"><defs><style>.cls-1{fill:#06f;}.cls-2{fill:#fff;}</style></defs><g id="_레이어_1-2"><g id="_레이어_2-2"><circle class="cls-1" cx="48" cy="48" r="48"/><path class="cls-2" d="M82.31,26.7c1.17,6.92,.81,14.22-1.36,21.41-7.47,24.81-33.5,38.91-58.14,31.5,3.73,2.85,8.03,5.09,12.78,6.52,21.36,6.43,43.94-5.79,50.41-27.3,3.38-11.22,1.7-22.75-3.7-32.13Z"/><polygon class="cls-2" points="29.46 21.74 34.51 25.46 39.61 21.82 37.62 27.77 42.66 31.49 36.39 31.44 34.41 37.39 32.52 31.41 26.25 31.36 31.35 27.72 29.46 21.74"/><polygon class="cls-2" points="50.14 49.46 55.35 52.95 60.28 49.07 58.57 55.1 63.78 58.59 57.52 58.83 55.81 64.86 53.65 58.98 47.38 59.22 52.31 55.34 50.14 49.46"/><polygon class="cls-2" points="39.9 35.77 45.04 39.35 50.04 35.57 48.21 41.57 53.35 45.16 47.09 45.28 45.26 51.27 43.21 45.35 36.95 45.47 41.95 41.69 39.9 35.77"/></g></g></svg>